<mxfile host="app.diagrams.net" agent="Mozilla/5.0 (Windows NT 10.0; Win64; x64) AppleWebKit/537.36 (KHTML, like Gecko) Chrome/131.0.0.0 Safari/537.36 Edg/131.0.0.0" version="25.0.3">
  <diagram name="Page-1" id="mEwxmjHmtNv21wZuKrNc">
    <mxGraphModel dx="556" dy="637" grid="1" gridSize="10" guides="1" tooltips="1" connect="1" arrows="1" fold="1" page="1" pageScale="1" pageWidth="850" pageHeight="1100" math="0" shadow="0">
      <root>
        <mxCell id="0" />
        <mxCell id="1" parent="0" />
        <mxCell id="PiKWDLcCiFq4yHLphNZV-11" style="edgeStyle=orthogonalEdgeStyle;rounded=0;orthogonalLoop=1;jettySize=auto;html=1;" parent="1" source="PiKWDLcCiFq4yHLphNZV-1" target="PiKWDLcCiFq4yHLphNZV-2" edge="1">
          <mxGeometry relative="1" as="geometry" />
        </mxCell>
        <mxCell id="PiKWDLcCiFq4yHLphNZV-1" value="start" style="ellipse;whiteSpace=wrap;html=1;" parent="1" vertex="1">
          <mxGeometry x="260" y="10" width="120" height="80" as="geometry" />
        </mxCell>
        <mxCell id="PiKWDLcCiFq4yHLphNZV-2" value="Diem" style="rounded=0;whiteSpace=wrap;html=1;" parent="1" vertex="1">
          <mxGeometry x="260" y="170" width="120" height="60" as="geometry" />
        </mxCell>
        <mxCell id="Dmvm5EG0pSvPh0dVof0B-3" style="edgeStyle=orthogonalEdgeStyle;rounded=0;orthogonalLoop=1;jettySize=auto;html=1;" edge="1" parent="1" source="Dmvm5EG0pSvPh0dVof0B-1" target="Dmvm5EG0pSvPh0dVof0B-2">
          <mxGeometry relative="1" as="geometry" />
        </mxCell>
        <mxCell id="Dmvm5EG0pSvPh0dVof0B-4" style="edgeStyle=orthogonalEdgeStyle;rounded=0;orthogonalLoop=1;jettySize=auto;html=1;entryX=0;entryY=0.5;entryDx=0;entryDy=0;" edge="1" parent="1" source="Dmvm5EG0pSvPh0dVof0B-1" target="PiKWDLcCiFq4yHLphNZV-2">
          <mxGeometry relative="1" as="geometry">
            <Array as="points">
              <mxPoint x="140" y="200" />
            </Array>
          </mxGeometry>
        </mxCell>
        <mxCell id="Dmvm5EG0pSvPh0dVof0B-1" value="if diem &amp;lt; 4" style="rhombus;whiteSpace=wrap;html=1;" vertex="1" parent="1">
          <mxGeometry x="100" y="280" width="80" height="80" as="geometry" />
        </mxCell>
        <mxCell id="Dmvm5EG0pSvPh0dVof0B-2" value="không đạt" style="shape=parallelogram;perimeter=parallelogramPerimeter;whiteSpace=wrap;html=1;fixedSize=1;" vertex="1" parent="1">
          <mxGeometry x="80" y="400" width="120" height="60" as="geometry" />
        </mxCell>
        <mxCell id="Dmvm5EG0pSvPh0dVof0B-7" style="edgeStyle=orthogonalEdgeStyle;rounded=0;orthogonalLoop=1;jettySize=auto;html=1;" edge="1" parent="1" source="Dmvm5EG0pSvPh0dVof0B-5" target="Dmvm5EG0pSvPh0dVof0B-6">
          <mxGeometry relative="1" as="geometry" />
        </mxCell>
        <mxCell id="Dmvm5EG0pSvPh0dVof0B-17" style="edgeStyle=orthogonalEdgeStyle;rounded=0;orthogonalLoop=1;jettySize=auto;html=1;" edge="1" parent="1" source="Dmvm5EG0pSvPh0dVof0B-5">
          <mxGeometry relative="1" as="geometry">
            <mxPoint x="320" y="230" as="targetPoint" />
          </mxGeometry>
        </mxCell>
        <mxCell id="Dmvm5EG0pSvPh0dVof0B-5" value="4 &amp;lt;= Diem &amp;lt;= 6" style="rhombus;whiteSpace=wrap;html=1;" vertex="1" parent="1">
          <mxGeometry x="220" y="430" width="80" height="80" as="geometry" />
        </mxCell>
        <mxCell id="Dmvm5EG0pSvPh0dVof0B-25" style="edgeStyle=orthogonalEdgeStyle;rounded=0;orthogonalLoop=1;jettySize=auto;html=1;entryX=0;entryY=0;entryDx=0;entryDy=0;" edge="1" parent="1" source="Dmvm5EG0pSvPh0dVof0B-6" target="Dmvm5EG0pSvPh0dVof0B-23">
          <mxGeometry relative="1" as="geometry" />
        </mxCell>
        <mxCell id="Dmvm5EG0pSvPh0dVof0B-6" value="trung bình" style="shape=parallelogram;perimeter=parallelogramPerimeter;whiteSpace=wrap;html=1;fixedSize=1;" vertex="1" parent="1">
          <mxGeometry x="200" y="590" width="120" height="60" as="geometry" />
        </mxCell>
        <mxCell id="Dmvm5EG0pSvPh0dVof0B-9" value="6&amp;lt; Diem &amp;lt;=8" style="rhombus;whiteSpace=wrap;html=1;" vertex="1" parent="1">
          <mxGeometry x="385" y="430" width="80" height="80" as="geometry" />
        </mxCell>
        <mxCell id="Dmvm5EG0pSvPh0dVof0B-15" style="edgeStyle=orthogonalEdgeStyle;rounded=0;orthogonalLoop=1;jettySize=auto;html=1;entryX=0.5;entryY=1;entryDx=0;entryDy=0;" edge="1" parent="1" source="Dmvm5EG0pSvPh0dVof0B-10" target="Dmvm5EG0pSvPh0dVof0B-9">
          <mxGeometry relative="1" as="geometry" />
        </mxCell>
        <mxCell id="Dmvm5EG0pSvPh0dVof0B-10" value="khá" style="shape=parallelogram;perimeter=parallelogramPerimeter;whiteSpace=wrap;html=1;fixedSize=1;" vertex="1" parent="1">
          <mxGeometry x="365" y="590" width="120" height="60" as="geometry" />
        </mxCell>
        <mxCell id="Dmvm5EG0pSvPh0dVof0B-19" style="edgeStyle=orthogonalEdgeStyle;rounded=0;orthogonalLoop=1;jettySize=auto;html=1;entryX=1;entryY=0.5;entryDx=0;entryDy=0;" edge="1" parent="1" source="Dmvm5EG0pSvPh0dVof0B-13" target="PiKWDLcCiFq4yHLphNZV-2">
          <mxGeometry relative="1" as="geometry">
            <Array as="points">
              <mxPoint x="540" y="200" />
            </Array>
          </mxGeometry>
        </mxCell>
        <mxCell id="Dmvm5EG0pSvPh0dVof0B-22" style="edgeStyle=orthogonalEdgeStyle;rounded=0;orthogonalLoop=1;jettySize=auto;html=1;" edge="1" parent="1" source="Dmvm5EG0pSvPh0dVof0B-13" target="Dmvm5EG0pSvPh0dVof0B-20">
          <mxGeometry relative="1" as="geometry" />
        </mxCell>
        <mxCell id="Dmvm5EG0pSvPh0dVof0B-13" value="9&amp;lt;Diem&amp;lt;=10" style="rhombus;whiteSpace=wrap;html=1;" vertex="1" parent="1">
          <mxGeometry x="500" y="280" width="80" height="80" as="geometry" />
        </mxCell>
        <mxCell id="Dmvm5EG0pSvPh0dVof0B-18" style="edgeStyle=orthogonalEdgeStyle;rounded=0;orthogonalLoop=1;jettySize=auto;html=1;entryX=0.653;entryY=1.027;entryDx=0;entryDy=0;entryPerimeter=0;" edge="1" parent="1" source="Dmvm5EG0pSvPh0dVof0B-9" target="PiKWDLcCiFq4yHLphNZV-2">
          <mxGeometry relative="1" as="geometry" />
        </mxCell>
        <mxCell id="Dmvm5EG0pSvPh0dVof0B-20" value="xuất sắc" style="shape=parallelogram;perimeter=parallelogramPerimeter;whiteSpace=wrap;html=1;fixedSize=1;" vertex="1" parent="1">
          <mxGeometry x="480" y="420" width="120" height="60" as="geometry" />
        </mxCell>
        <mxCell id="Dmvm5EG0pSvPh0dVof0B-23" value="end" style="ellipse;whiteSpace=wrap;html=1;" vertex="1" parent="1">
          <mxGeometry x="280" y="780" width="120" height="80" as="geometry" />
        </mxCell>
        <mxCell id="Dmvm5EG0pSvPh0dVof0B-24" style="edgeStyle=orthogonalEdgeStyle;rounded=0;orthogonalLoop=1;jettySize=auto;html=1;entryX=0;entryY=0.625;entryDx=0;entryDy=0;entryPerimeter=0;" edge="1" parent="1" source="Dmvm5EG0pSvPh0dVof0B-2" target="Dmvm5EG0pSvPh0dVof0B-23">
          <mxGeometry relative="1" as="geometry">
            <Array as="points">
              <mxPoint x="130" y="830" />
            </Array>
          </mxGeometry>
        </mxCell>
        <mxCell id="Dmvm5EG0pSvPh0dVof0B-26" style="edgeStyle=orthogonalEdgeStyle;rounded=0;orthogonalLoop=1;jettySize=auto;html=1;entryX=0.727;entryY=0.025;entryDx=0;entryDy=0;entryPerimeter=0;" edge="1" parent="1" source="Dmvm5EG0pSvPh0dVof0B-10" target="Dmvm5EG0pSvPh0dVof0B-23">
          <mxGeometry relative="1" as="geometry" />
        </mxCell>
        <mxCell id="Dmvm5EG0pSvPh0dVof0B-27" style="edgeStyle=orthogonalEdgeStyle;rounded=0;orthogonalLoop=1;jettySize=auto;html=1;entryX=1.007;entryY=0.605;entryDx=0;entryDy=0;entryPerimeter=0;" edge="1" parent="1" source="Dmvm5EG0pSvPh0dVof0B-20" target="Dmvm5EG0pSvPh0dVof0B-23">
          <mxGeometry relative="1" as="geometry">
            <Array as="points">
              <mxPoint x="550" y="828" />
            </Array>
          </mxGeometry>
        </mxCell>
      </root>
    </mxGraphModel>
  </diagram>
</mxfile>
